<?xml version="1.0" encoding="UTF-8"?>
<svg version="1.1" xmlns="http://www.w3.org/2000/svg" width="96" height="96">
<path d="M0 0 C1.15790039 -0.00315216 2.31580078 -0.00630432 3.50878906 -0.009552 C4.76916992 -0.00752777 6.02955078 -0.00550354 7.328125 -0.00341797 C8.61170898 -0.00437469 9.89529297 -0.00533142 11.21777344 -0.00631714 C13.93816324 -0.00779378 16.65852025 -0.00564066 19.37890625 -0.00097656 C22.87297169 0.00472073 26.36696033 0.00144154 29.86102295 -0.00454903 C33.18339653 -0.00902301 36.50574923 -0.00589432 39.828125 -0.00341797 C41.08850586 -0.0054422 42.34888672 -0.00746643 43.64746094 -0.009552 C44.80536133 -0.00639984 45.96326172 -0.00324768 47.15625 0 C48.18137695 0.00079559 49.20650391 0.00159119 50.26269531 0.00241089 C52.578125 0.12939453 52.578125 0.12939453 53.578125 1.12939453 C53.67768778 3.30202133 53.70612219 5.47792559 53.70751953 7.65283203 C53.71014801 8.67476654 53.71014801 8.67476654 53.71282959 9.71734619 C53.71724742 11.9797212 53.71431038 14.24201866 53.7109375 16.50439453 C53.71161056 18.06998713 53.7125806 19.63557963 53.71383667 21.20117188 C53.71531355 24.48650098 53.71315941 27.77180295 53.70849609 31.05712891 C53.7027988 35.27759969 53.70607786 39.49800689 53.71206856 43.71847534 C53.71567444 46.95256025 53.71453546 50.18662998 53.71194077 53.42071533 C53.71127157 54.97731534 53.71209966 56.53391671 53.71442032 58.09051514 C53.7169473 60.26236649 53.71310565 62.43411349 53.70751953 64.60595703 C53.70672394 65.8442627 53.70592834 67.08256836 53.70510864 68.35839844 C53.578125 71.12939453 53.578125 71.12939453 52.578125 72.12939453 C50.77303127 72.22839014 48.96405572 72.25738604 47.15625 72.25878906 C45.99834961 72.26194122 44.84044922 72.26509338 43.64746094 72.26834106 C42.38708008 72.26631683 41.12669922 72.2642926 39.828125 72.26220703 C38.54454102 72.26316376 37.26095703 72.26412048 35.93847656 72.2651062 C33.21808676 72.26658284 30.49772975 72.26442972 27.77734375 72.25976562 C24.28327831 72.25406834 20.78928967 72.25734753 17.29522705 72.26333809 C13.97285347 72.26781208 10.65050077 72.26468338 7.328125 72.26220703 C6.06774414 72.26423126 4.80736328 72.26625549 3.50878906 72.26834106 C2.35088867 72.2651889 1.19298828 72.26203674 0 72.25878906 C-1.02512695 72.25799347 -2.05025391 72.25719788 -3.10644531 72.25637817 C-5.421875 72.12939453 -5.421875 72.12939453 -6.421875 71.12939453 C-6.49501067 68.59890051 -6.51435027 66.09634616 -6.484375 63.56689453 C-6.47986328 62.85597656 -6.47535156 62.14505859 -6.47070312 61.41259766 C-6.45888364 59.6514944 -6.44094763 57.89043417 -6.421875 56.12939453 C-7.27736938 56.13724976 -7.27736938 56.13724976 -8.15014648 56.14526367 C-10.71987823 56.16597674 -13.28959247 56.17903643 -15.859375 56.19189453 C-16.75720703 56.20027344 -17.65503906 56.20865234 -18.58007812 56.21728516 C-19.86108398 56.22211914 -19.86108398 56.22211914 -21.16796875 56.22705078 C-21.95872803 56.2322876 -22.7494873 56.23752441 -23.56420898 56.24291992 C-25.421875 56.12939453 -25.421875 56.12939453 -26.421875 55.12939453 C-26.52290755 52.32945856 -26.56157588 49.5547081 -26.5546875 46.75439453 C-26.55564423 45.91473145 -26.55660095 45.07506836 -26.55758667 44.20996094 C-26.55826848 42.43115158 -26.55641417 40.65233976 -26.55224609 38.87353516 C-26.54689783 36.14105677 -26.55219105 33.40874277 -26.55859375 30.67626953 C-26.55793297 28.95231083 -26.55665181 27.22835224 -26.5546875 25.50439453 C-26.55671173 24.68148926 -26.55873596 23.85858398 -26.56082153 23.01074219 C-26.53682554 17.24434508 -26.53682554 17.24434508 -25.421875 16.12939453 C-24.00617377 16.04287842 -22.58628 16.02234549 -21.16796875 16.03173828 C-19.88696289 16.03657227 -19.88696289 16.03657227 -18.58007812 16.04150391 C-17.68224609 16.04988281 -16.78441406 16.05826172 -15.859375 16.06689453 C-14.95767578 16.07140625 -14.05597656 16.07591797 -13.12695312 16.08056641 C-10.89186186 16.09239229 -8.65690063 16.10887233 -6.421875 16.12939453 C-6.43347656 15.05818359 -6.44507812 13.98697266 -6.45703125 12.88330078 C-6.46640799 11.4861671 -6.47550831 10.08903154 -6.484375 8.69189453 C-6.49275391 7.98484375 -6.50113281 7.27779297 -6.50976562 6.54931641 C-6.51841088 4.74245894 -6.47407511 2.9355185 -6.421875 1.12939453 C-4.69119801 -0.60128246 -2.35698696 0.00182924 0 0 Z " fill="#0D7239" transform="translate(34.421875,11.87060546875)"/>
<path d="M0 0 C7.1465625 -0.0309375 7.1465625 -0.0309375 14.4375 -0.0625 C15.9423999 -0.071604 17.4472998 -0.08070801 18.99780273 -0.09008789 C20.17286377 -0.09258545 21.3479248 -0.09508301 22.55859375 -0.09765625 C24.37315063 -0.10551147 24.37315063 -0.10551147 26.22436523 -0.11352539 C29 0 29 0 30 1 C30.09346915 2.65738443 30.11744977 4.31874644 30.11352539 5.97875977 C30.11344986 7.03978409 30.11337433 8.10080841 30.11329651 9.19398499 C30.10813522 10.348134 30.10297394 11.50228302 30.09765625 12.69140625 C30.0962413 13.86638168 30.09482635 15.04135712 30.09336853 16.25193787 C30.08774992 20.02215064 30.07519426 23.79230504 30.0625 27.5625 C30.0574874 30.11132727 30.05292408 32.66015547 30.04882812 35.20898438 C30.03862331 41.47269709 30.01905152 47.73628284 30 54 C20.1 54 10.2 54 0 54 C0 36.18 0 18.36 0 0 Z " fill="#19AB65" transform="translate(58,12)"/>
<path d="M0 0 C3.3 0 6.6 0 10 0 C10 5.94 10 11.88 10 18 C19.9 18 29.8 18 40 18 C40.020625 20.784375 40.04125 23.56875 40.0625 26.4375 C40.071604 27.31591553 40.08070801 28.19433105 40.09008789 29.09936523 C40.09723091 31.06645974 40.05031893 33.03353621 40 35 C38.26932301 36.73067699 35.93511196 36.12756529 33.578125 36.12939453 C32.42022461 36.13254669 31.26232422 36.13569885 30.06933594 36.13894653 C28.17876465 36.13591019 28.17876465 36.13591019 26.25 36.1328125 C24.96641602 36.13376923 23.68283203 36.13472595 22.36035156 36.13571167 C19.63996176 36.13718831 16.91960475 36.13503519 14.19921875 36.13037109 C10.70515331 36.12467381 7.21116467 36.12795299 3.71710205 36.13394356 C0.39472847 36.13841754 -2.92762423 36.13528885 -6.25 36.1328125 C-7.51038086 36.13483673 -8.77076172 36.13686096 -10.06933594 36.13894653 C-11.22723633 36.13579437 -12.38513672 36.13264221 -13.578125 36.12939453 C-14.60325195 36.12859894 -15.62837891 36.12780334 -16.68457031 36.12698364 C-19 36 -19 36 -20 35 C-20.07313567 32.46950598 -20.09247527 29.96695163 -20.0625 27.4375 C-20.05798828 26.72658203 -20.05347656 26.01566406 -20.04882812 25.28320312 C-20.03700864 23.52209987 -20.01907263 21.76103964 -20 20 C-18.71222656 19.93941406 -17.42445312 19.87882812 -16.09765625 19.81640625 C-14.41925841 19.73201753 -12.74087364 19.6473687 -11.0625 19.5625 C-10.21236328 19.52318359 -9.36222656 19.48386719 -8.48632812 19.44335938 C-7.67744141 19.40146484 -6.86855469 19.35957031 -6.03515625 19.31640625 C-4.91185913 19.26141968 -4.91185913 19.26141968 -3.76586914 19.20532227 C-1.97538674 19.18228937 -1.97538674 19.18228937 -1 18 C-0.84417697 16.65984779 -0.74955858 15.31241097 -0.68359375 13.96484375 C-0.64169922 13.15595703 -0.59980469 12.34707031 -0.55664062 11.51367188 C-0.51732422 10.66353516 -0.47800781 9.81339844 -0.4375 8.9375 C-0.39431641 8.08349609 -0.35113281 7.22949219 -0.30664062 6.34960938 C-0.20023298 4.23327963 -0.09958269 2.11666187 0 0 Z " fill="#174729" transform="translate(48,48)"/>
<path d="M0 0 C9.9 0 19.8 0 30 0 C30 5.94 30 11.88 30 18 C20.1 18 10.2 18 0 18 C0 12.06 0 6.12 0 0 Z " fill="#129651" transform="translate(58,48)"/>
<path d="M0 0 C9.9 0 19.8 0 30 0 C30.020625 2.784375 30.04125 5.56875 30.0625 8.4375 C30.071604 9.31591553 30.08070801 10.19433105 30.09008789 11.09936523 C30.09723091 13.06645974 30.05031893 15.03353621 30 17 C29 18 29 18 26.22436523 18.11352539 C25.01466064 18.10828857 23.80495605 18.10305176 22.55859375 18.09765625 C21.25341797 18.09443359 19.94824219 18.09121094 18.60351562 18.08789062 C17.2148431 18.07953401 15.82617123 18.07106905 14.4375 18.0625 C13.04492344 18.05748666 11.65234519 18.05292347 10.25976562 18.04882812 C6.83982549 18.03699442 3.4199075 18.01905831 0 18 C0 12.06 0 6.12 0 0 Z " fill="#26663F" transform="translate(58,66)"/>
<path d="M0 0 C4.11177927 -0.02291394 8.22339658 -0.04283951 12.33520508 -0.05493164 C13.73495228 -0.0599708 15.1346942 -0.06680216 16.53442383 -0.07543945 C18.54245777 -0.0875232 20.55052957 -0.09269807 22.55859375 -0.09765625 C24.37315063 -0.10551147 24.37315063 -0.10551147 26.22436523 -0.11352539 C29 0 29 0 30 1 C30.07330331 3.86469325 30.09217831 6.69893674 30.0625 9.5625 C30.041875 12.346875 30.02125 15.13125 30 18 C20.1 18 10.2 18 0 18 C0 12.06 0 6.12 0 0 Z " fill="#28C17E" transform="translate(58,12)"/>
<path d="M0 0 C1.20970459 0.00523682 2.41940918 0.01047363 3.66577148 0.01586914 C4.97094727 0.0190918 6.27612305 0.02231445 7.62084961 0.02563477 C9.00952213 0.03399138 10.39819401 0.04245634 11.78686523 0.05102539 C13.17944179 0.05603873 14.57202005 0.06060193 15.96459961 0.06469727 C19.38453974 0.07653097 22.80445773 0.09446708 26.22436523 0.11352539 C26.22436523 6.05352539 26.22436523 11.99352539 26.22436523 18.11352539 C17.72827148 18.21118164 17.72827148 18.21118164 15.22436523 18.11352539 C14.89436523 17.78352539 14.56436523 17.45352539 14.22436523 17.11352539 C12.88421302 16.95770236 11.5367762 16.86308397 10.18920898 16.79711914 C9.38032227 16.75522461 8.57143555 16.71333008 7.73803711 16.67016602 C6.88790039 16.63084961 6.03776367 16.5915332 5.16186523 16.55102539 C4.30786133 16.5078418 3.45385742 16.4646582 2.57397461 16.42016602 C0.45764486 16.31375837 -1.65897289 16.21310808 -3.77563477 16.11352539 C-3.80248572 13.63428738 -3.82240024 11.15533699 -3.83813477 8.67602539 C-3.85070312 7.61544922 -3.85070312 7.61544922 -3.86352539 6.53344727 C-3.87217064 4.7265898 -3.82783488 2.91964936 -3.77563477 1.11352539 C-2.77563477 0.11352539 -2.77563477 0.11352539 0 0 Z " fill="#159053" transform="translate(31.775634765625,11.886474609375)"/>
<path d="M0 0 C3.3 0 6.6 0 10 0 C10 5.94 10 11.88 10 18 C6.7 18 3.4 18 0 18 C0 12.06 0 6.12 0 0 Z " fill="#0C7F45" transform="translate(48,30)"/>
<path d="M0 0 C1.65 0 3.3 0 5 0 C5.99 1.98 6.98 3.96 8 6 C8.86625 4.515 8.86625 4.515 9.75 3 C10.4925 2.01 11.235 1.02 12 0 C13.32 0 14.64 0 16 0 C15.566875 1.051875 15.566875 1.051875 15.125 2.125 C14.75375 3.07375 14.3825 4.0225 14 5 C13.525625 5.9075 13.05125 6.815 12.5625 7.75 C11.69658388 12.75307094 14.29102027 15.9092588 17 20 C14.61328125 20.1484375 14.61328125 20.1484375 12 20 C10.18116991 17.6167054 9 16.04181663 9 13 C8.34 13 7.68 13 7 13 C6.690625 13.969375 6.38125 14.93875 6.0625 15.9375 C5 19 5 19 4 20 C2.33382885 20.04063832 0.66611905 20.042721 -1 20 C-0.62746094 19.39671875 -0.25492188 18.7934375 0.12890625 18.171875 C0.60199219 17.37265625 1.07507813 16.5734375 1.5625 15.75 C2.03816406 14.96109375 2.51382812 14.1721875 3.00390625 13.359375 C4.15229765 10.63926361 4.0824033 9.69473321 3 7 C2.00585407 5.32983484 1.0064275 3.66279327 0 2 C0 1.34 0 0.68 0 0 Z " fill="#EEF5F1" transform="translate(20,38)"/>
</svg>
