<?xml version="1.0" encoding="UTF-8"?>
<svg version="1.1" xmlns="http://www.w3.org/2000/svg" width="768" height="768">
<path d="M0 0 C180.18 0 360.36 0 546 0 C537.91970927 93.50050698 537.91970927 93.50050698 534.65139413 130.14776826 C534.14219773 135.86012637 533.63427024 141.57259738 533.12612915 147.28504944 C532.03260391 159.57575195 530.93756267 171.86631906 529.84215212 184.15685368 C529.15555825 191.86057564 528.46932354 199.56432957 527.78315353 207.26808929 C525.87232713 228.72075787 523.9611879 250.17339849 522.04853249 271.62590408 C521.98823968 272.30215789 521.92794688 272.9784117 521.86582703 273.67515804 C521.62167866 276.41356217 521.3775287 279.15196616 521.13337836 281.89037011 C520.94975837 283.94986259 520.76613893 286.00935512 520.58251953 288.06884766 C520.5218471 288.74935098 520.46117467 289.4298543 520.39866368 290.13097894 C518.4133151 312.39887363 516.43034477 334.66697924 514.44874905 356.93520819 C512.33752004 380.66010323 510.22431371 404.38482116 508.10878026 428.1093328 C506.96119299 440.97938947 505.81446989 453.8495218 504.67000198 466.71985626 C503.70133138 477.61310064 502.73079443 488.50617668 501.75777777 499.39903376 C501.26204789 504.94932376 500.76721698 510.49969011 500.27476501 516.05027199 C499.82461247 521.12384093 499.37194541 526.19717889 498.91723554 531.27034137 C498.75293988 533.10842277 498.58958113 534.9465882 498.42723437 536.78484276 C498.2071595 539.27520815 497.98372517 541.76524979 497.75942421 544.25523758 C497.69666965 544.97459557 497.63391508 545.69395356 497.56925887 546.43511027 C497.24312992 550.01388362 496.78736763 553.49244332 496 557 C475.89975722 562.69591517 455.78989461 568.3552447 435.65234375 573.91796875 C434.74660866 574.16819542 433.84087357 574.41842209 432.90769196 574.67623138 C425.25166044 576.79093477 417.59491805 578.90305981 409.93804169 581.01470184 C402.70439552 583.00968237 395.47109031 585.00589279 388.23828125 587.00390625 C387.20047264 587.29057411 386.16266403 587.57724197 385.09340668 587.87259674 C370.41749125 591.92834398 355.7544468 596.0279689 341.10108376 600.16443062 C338.0744155 601.01847037 335.04737577 601.87117929 332.02018738 602.72337341 C331.0398758 602.9993678 330.05956423 603.27536219 329.04954624 603.55972004 C327.09884735 604.10889491 325.14813529 604.658023 323.19740963 605.20710278 C317.53784538 606.8011388 311.8810398 608.4045491 306.22604465 610.01471424 C302.73318274 611.00699138 299.23796817 611.99076917 295.74207497 612.97230721 C294.13087333 613.42666986 292.52069268 613.88467173 290.91165733 614.34664726 C288.71403587 614.97721491 286.51314504 615.59479459 284.31103516 616.20947266 C283.08454254 616.55740875 281.85804993 616.90534485 280.59439087 617.26382446 C274.13426577 618.58693768 268.55756686 618.15534357 262.17626953 616.37719727 C261.53743615 616.20223504 260.89860277 616.02727282 260.2404108 615.84700871 C258.11839084 615.26318089 256.00075569 614.66483942 253.8828125 614.06640625 C252.34792814 613.64090482 250.81278972 613.21631891 249.27742004 612.79257202 C245.09922472 611.63668626 240.92465577 610.46816746 236.75059128 609.29746628 C232.31831675 608.05676582 227.88274996 606.82794828 223.44750977 605.59790039 C215.88952848 603.50021762 208.33352971 601.39552523 200.77880859 599.28613281 C188.96663771 595.98829987 177.14974955 592.70757679 165.33203125 589.4296875 C161.41061388 588.34182594 157.4892299 587.25384412 153.56787109 586.16577148 C152.60407028 585.89834483 151.64026947 585.63091818 150.64726257 585.35538769 C143.91346907 583.48664336 137.18039532 581.61532214 130.44775391 579.74243164 C129.51751656 579.48365769 128.58727921 579.22488375 127.62885284 578.95826817 C125.77707032 578.44312251 123.9252891 577.92797217 122.07350922 577.412817 C109.03284638 573.78505955 95.99064526 570.16320395 82.94140625 566.56640625 C81.78881821 566.24856674 80.63623016 565.93072723 79.44871521 565.60325623 C74.40139764 564.2117559 69.3534917 562.82246276 64.30444336 561.43725586 C62.64044493 560.97906675 60.97646246 560.52081969 59.3125 560.0625 C58.5808815 559.86278091 57.849263 559.66306183 57.09547424 559.45729065 C52.22687089 558.11343544 52.22687089 558.11343544 50 557 C49.43970692 554.1888994 49.43970692 554.1888994 49.00392342 550.33582115 C48.92246063 549.62554208 48.84099785 548.915263 48.7570665 548.18346032 C47.658004 538.34741082 46.80742844 528.48514822 45.93722534 518.62686157 C45.73775124 516.39118903 45.53802684 514.15553881 45.33807576 511.91990888 C44.79276067 505.81469726 44.25097964 499.70917654 43.70980525 493.60359669 C43.18454436 487.68394423 42.65658399 481.7645327 42.12870458 475.84511331 C41.04988169 463.74656209 39.97372307 451.64777528 38.89913559 439.5488472 C37.83583436 427.57703399 36.77141995 415.60532064 35.70550919 403.63373947 C35.63910202 402.88788864 35.57269485 402.14203781 35.50427535 401.37358544 C35.23469356 398.34582358 34.96510357 395.31806246 34.69550284 392.29030229 C32.24170412 364.73281066 29.7906453 337.17507605 27.34130859 309.6171875 C25.02865613 283.59717031 22.71429724 257.57730566 20.39794922 231.55761719 C20.32649759 230.7549916 20.25504596 229.95236601 20.18142912 229.12541843 C19.82154493 225.08279419 19.4616585 221.04017015 19.10177214 216.9975461 C19.03075678 216.19982502 18.95974142 215.40210395 18.88657408 214.5802095 C18.74337498 212.97164435 18.60017536 211.36307925 18.45697523 209.75451418 C16.1791437 184.16752902 13.90273101 158.58041762 11.62659469 132.99328161 C10.9600798 125.50073288 10.29349038 118.0081908 9.6267333 110.51566362 C8.22527098 94.76694047 6.82422729 79.01818037 5.42482363 63.26927413 C4.84602583 56.75561866 4.26693785 50.24198925 3.68710327 43.72842598 C3.15719741 37.77560027 2.6281025 31.82270309 2.09967984 25.86974554 C1.9075855 23.70732185 1.71518944 21.54492494 1.52247404 19.38255651 C1.26218862 16.46149739 1.00297324 13.54034531 0.74404716 10.61916542 C0.66761028 9.76425081 0.59117339 8.90933621 0.51242024 8.0285151 C0 2.22832153 0 2.22832153 0 0 Z " fill="#E44D26" transform="translate(111,150)"/>
<path d="M0 0 C112.53 0 225.06 0 341 0 C341 11.25162843 341 11.25162843 340.55688477 16.01293945 C340.4600087 17.07716629 340.36313263 18.14139313 340.26332092 19.23786926 C340.15708908 20.35175522 340.05085724 21.46564117 339.94140625 22.61328125 C339.8327977 23.78585983 339.72418915 24.95843842 339.61228943 26.16654968 C339.3832865 28.62824659 339.15205603 31.08973721 338.91870117 33.55102539 C338.56197692 37.31802375 338.21306788 41.08568698 337.86523438 44.85351562 C337.64108409 47.2526471 337.41649022 49.65173719 337.19140625 52.05078125 C337.08719864 53.17478836 336.98299103 54.29879547 336.87562561 55.4568634 C336.77559738 56.50532944 336.67556915 57.55379547 336.57250977 58.6340332 C336.48590591 59.5520723 336.39930206 60.47011139 336.31007385 61.41596985 C336.00442223 63.96314695 335.50312615 66.48436923 335 69 C249.2 69 163.4 69 75 69 C76.32 81.87 77.64 94.74 79 108 C81 128.7 81 128.7 81 138 C162.84 138 244.68 138 329 138 C329 143.66825507 328.93340669 148.68446171 328.30078125 154.22265625 C328.14453953 155.63108639 327.98846128 157.03953466 327.83251953 158.44799805 C327.74826721 159.19350922 327.66401489 159.93902039 327.57720947 160.7071228 C325.01136789 183.53790664 323.03873948 206.42097401 321.03175354 229.30609131 C320.25203052 238.18328824 319.45596668 247.05889625 318.65112305 255.93384552 C315.89968378 286.27420971 313.17544437 316.61157725 311 347 C304.84325021 349.08539529 298.66245152 351.06559272 292.4375 352.9375 C291.56544922 353.19982422 290.69339844 353.46214844 289.79492188 353.73242188 C283.27789165 355.66991735 276.73334128 357.33870776 270.125 358.9375 C265.36707938 360.12698016 260.68858513 361.56500879 256 363 C248.74867931 365.2193436 241.4964564 367.15408313 234.125 368.9375 C229.36707146 370.12698214 224.68862855 371.56513138 220 373 C212.78327148 375.20687544 205.5689274 377.15645579 198.23046875 378.921875 C194.97814137 379.72608686 191.7654252 380.63464234 188.55078125 381.578125 C187.61032959 381.85398437 186.66987793 382.12984375 185.70092773 382.4140625 C183.85848906 382.95907417 182.01803089 383.51084031 180.17993164 384.0703125 C173.2709917 386.11331046 168.17536202 386.58140118 161.1875 384.4375 C159.96933594 384.07398438 158.75117188 383.71046875 157.49609375 383.3359375 C156.7985498 383.12678711 156.10100586 382.91763672 155.38232422 382.70214844 C150.52008629 381.26908876 145.63268737 379.92387405 140.75 378.5625 C138.5572891 377.94922794 136.36458074 377.33594677 134.171875 376.72265625 C128.41209717 375.11403008 122.65046152 373.51218876 116.88769531 371.91430664 C109.334085 369.81844336 101.7864668 367.7012374 94.23828125 365.5859375 C87.46207394 363.68760902 80.68346421 361.7982674 73.90209961 359.91845703 C66.24357228 357.7937382 58.59129885 355.64668898 50.93945312 353.49804688 C49.93978516 353.21767578 48.94011719 352.93730469 47.91015625 352.6484375 C47.03496338 352.40270996 46.15977051 352.15698242 45.25805664 351.90380859 C40.50972303 350.58658634 35.75471761 349.2939601 31 348 C28.55892874 322.58848472 26.13697735 297.17511642 23.95007324 271.74026489 C23.77600289 269.71646442 23.60080415 267.69276067 23.42443848 265.66915894 C23.1790228 262.84614584 22.93833135 260.02277188 22.69921875 257.19921875 C22.62759018 256.38060364 22.55596161 255.56198853 22.48216248 254.71856689 C22.41803665 253.94736511 22.35391083 253.17616333 22.2878418 252.3815918 C22.23186325 251.72426559 22.1758847 251.06693939 22.11820984 250.38969421 C21.947094 246.93046833 22 243.46345555 22 240 C44.44 240 66.88 240 90 240 C90.91202416 242.73607247 91.2456783 244.83589122 91.48071289 247.68334961 C91.56072037 248.63120834 91.64072784 249.57906708 91.72315979 250.5556488 C91.80549362 251.57755814 91.88782745 252.59946747 91.97265625 253.65234375 C92.1037101 255.22986168 92.1037101 255.22986168 92.2374115 256.83924866 C92.42150456 259.06415597 92.60379463 261.28921309 92.78442383 263.5144043 C93.0611404 266.92076338 93.34356649 270.32661187 93.62695312 273.73242188 C93.80502455 275.89320142 93.9827698 278.05400787 94.16015625 280.21484375 C94.28669334 281.7446714 94.28669334 281.7446714 94.41578674 283.30540466 C94.49264206 284.25641556 94.56949738 285.20742645 94.64868164 286.18725586 C94.75074669 287.43943153 94.75074669 287.43943153 94.85487366 288.71690369 C94.9877705 290.80760816 95 292.90507595 95 295 C96.25296875 295.27328125 97.5059375 295.5465625 98.796875 295.828125 C112.21719523 298.81391053 125.54901976 302.22432404 138.75 306.0625 C145.75372325 308.08612359 152.76247365 310.08060853 159.8125 311.9375 C160.61848633 312.16123291 161.42447266 312.38496582 162.25488281 312.61547852 C170.75045791 314.80354365 177.84826941 312.95401441 186.1875 310.8125 C187.48300781 310.48475586 187.48300781 310.48475586 188.8046875 310.15039062 C195.94945813 308.32038083 203.03289049 306.29746781 210.11499023 304.24047852 C222.30038355 300.72308052 234.61173732 297.71095378 247 295 C246.98558868 294.38394897 246.97117737 293.76789795 246.95632935 293.13317871 C246.85202545 284.92119135 247.49760052 276.82827282 248.2421875 268.65625 C248.37219729 267.19619186 248.50192188 265.7361083 248.63137817 264.27600098 C248.90227826 261.23334743 249.17667453 258.19103545 249.45361328 255.14892578 C249.80551973 251.28009071 250.14850228 247.41052587 250.48882866 243.54065704 C250.75457349 240.53060868 251.02516776 237.52101066 251.29715347 234.51152039 C251.42539584 233.08612809 251.55217533 231.66060328 251.67736435 230.23493958 C251.85405045 228.23105673 252.03801323 226.22781967 252.22216797 224.22460938 C252.3243161 223.09196655 252.42646423 221.95932373 252.53170776 220.7923584 C253.14434175 215.83108112 254.105759 210.91832549 255 206 C176.79 206 98.58 206 18 206 C14.7 168.38 11.4 130.76 8 92 C4.8340262 57.99924482 4.8340262 57.99924482 1.59741211 24.00561523 C0.91600706 16.01504807 0.47092527 8.00572956 0 0 Z " fill="#FEFEFE" transform="translate(213,264)"/>
<path d="M0 0 C73.26 0 146.52 0 222 0 C220.8453261 20.78413013 220.8453261 20.78413013 220.09765625 30.09765625 C220.01503036 31.14167099 219.93240448 32.18568573 219.84727478 33.26133728 C219.6744263 35.43643793 219.50048209 37.61145178 219.32543945 39.78637695 C219.06261559 43.0610598 218.80554558 46.33616157 218.54882812 49.61132812 C217.83569667 58.59101492 217.11690845 67.55693989 215.99609375 76.49609375 C214.60124531 87.62695866 213.85001081 98.81704525 213 110 C211.14714715 134.37659535 211.14714715 134.37659535 209.75 145.48828125 C208.46917534 155.95502027 207.79901161 166.4880035 207 177 C206.67060162 181.33364747 206.3366028 185.66690678 206 190 C205.92910156 190.95261719 205.85820313 191.90523437 205.78515625 192.88671875 C205.34488384 198.54846741 204.75503964 204.1795746 204.06738281 209.81616211 C202.9078616 219.39387207 202.05349913 228.99300139 201.21366119 238.60328484 C200.90731244 242.10800627 200.59788284 245.61244528 200.28778076 249.11683655 C199.93244571 253.13287099 199.57722903 257.14891509 199.22302628 261.16504955 C198.16268208 273.18481733 197.09154676 285.20361051 196.01757812 297.22216797 C195.9300166 298.20206861 195.84245508 299.18196925 195.75224018 300.19156384 C195.20433853 306.32251723 194.65619752 312.45344921 194.10800743 318.58437681 C193.64027138 323.81597437 193.17273824 329.04759006 192.7052002 334.27920532 C192.13422425 340.6682152 191.56322577 347.05722305 190.99208832 353.44621849 C190.01550224 364.37091672 189.03931489 375.29565033 188.06396484 386.22045898 C187.19813497 395.91853124 186.33162694 405.61654262 185.46429706 415.31448084 C185.00944883 420.40056287 184.55492838 425.48667368 184.10123444 430.57285881 C183.67848332 435.3120431 183.25482245 440.05114518 182.83046532 444.79018593 C182.67573612 446.5199218 182.52133558 448.24968711 182.36729622 449.97948456 C180.93661768 466.04156997 180.93661768 466.04156997 180 474 C178.38387817 474.45101074 178.38387817 474.45101074 176.73510742 474.91113281 C176.01134918 475.11311279 175.28759094 475.31509277 174.54190063 475.52319336 C172.88376049 475.98592821 171.22561833 476.4486558 169.56747437 476.91137695 C164.82545385 478.23469626 160.08347172 479.55815288 155.34155273 480.88183594 C146.34757024 483.39232264 137.35343351 485.9022407 128.35784912 488.40698242 C123.75924298 489.68742694 119.16084092 490.96860337 114.5625 492.25 C113.65967285 492.50152832 112.7568457 492.75305664 111.82666016 493.01220703 C100.93406683 496.04804032 90.05312108 499.11884354 79.1875 502.25 C68.65366556 505.2852383 58.07611905 508.1279469 47.47363281 510.91308594 C40.75168212 512.69144479 34.06064105 514.54081631 27.390625 516.50390625 C26.68041702 516.71264877 25.97020905 516.9213913 25.23847961 517.13645935 C21.80108637 518.14912617 18.36692991 519.17151458 14.9362793 520.20678711 C13.70820557 520.57167236 12.48013184 520.93655762 11.21484375 521.3125 C10.13323975 521.63863281 9.05163574 521.96476563 7.93725586 522.30078125 C5 523 5 523 0 523 C-0.33 499.9 -0.66 476.8 -1 453 C18.17595663 447.36001276 18.17595663 447.36001276 27.75 444.9375 C34.71105234 443.15063287 41.58973944 441.2479555 48.4375 439.0625 C54.43563313 437.2735831 60.50879553 435.76873194 66.5703125 434.2109375 C71.58630121 432.91437645 76.56276071 431.57571467 81.5 430 C87.44345761 428.10315183 93.45967788 426.55237432 99.5 425 C106.63209688 423.16678188 113.69204914 421.25603262 120.70507812 419.0078125 C124.40732362 417.87541257 128.1315193 416.86810605 131.875 415.8828125 C132.56335938 415.70049072 133.25171875 415.51816895 133.9609375 415.33032227 C135.64031165 414.8856963 137.32011195 414.44268042 139 414 C139.06502213 413.10201691 139.13004425 412.20403381 139.19703674 411.27883911 C141.31607222 382.29155675 143.91798551 353.35597968 146.60845947 324.41680908 C147.4782971 315.05383238 148.3426436 305.69034625 149.2075386 296.32691193 C149.52539385 292.88828198 149.84401627 289.44972369 150.16268921 286.01116943 C151.17728644 275.04619993 152.17625406 264.08016261 153.13720703 253.11035156 C153.2724892 251.5696144 153.2724892 251.5696144 153.41050434 249.99775124 C153.83104245 245.20334617 154.24837676 240.40870329 154.65965271 235.61349487 C154.80889726 233.90133871 154.95823011 232.18919025 155.10766602 230.47705078 C155.16874857 229.74971363 155.22983112 229.02237648 155.29276466 228.27299881 C155.97894391 220.47703916 157.02682794 212.78537651 158 205 C76.16 205 -5.68 205 -90 205 C-96 144 -96 144 -96 136 C-10.2 136 75.6 136 164 136 C164.66 126.43 165.32 116.86 166 107 C167.32 93.8 168.64 80.6 170 67 C113.9 67 57.8 67 0 67 C0 44.89 0 22.78 0 0 Z " fill="#F16529" transform="translate(384,197)"/>
<path d="M0 0 C112.53 0 225.06 0 341 0 C341 11.25162843 341 11.25162843 340.55688477 16.01293945 C340.4600087 17.07716629 340.36313263 18.14139313 340.26332092 19.23786926 C340.15708908 20.35175522 340.05085724 21.46564117 339.94140625 22.61328125 C339.8327977 23.78585983 339.72418915 24.95843842 339.61228943 26.16654968 C339.3832865 28.62824659 339.15205603 31.08973721 338.91870117 33.55102539 C338.56197692 37.31802375 338.21306788 41.08568698 337.86523438 44.85351562 C337.64108409 47.2526471 337.41649022 49.65173719 337.19140625 52.05078125 C337.08719864 53.17478836 336.98299103 54.29879547 336.87562561 55.4568634 C336.77559738 56.50532944 336.67556915 57.55379547 336.57250977 58.6340332 C336.48590591 59.5520723 336.39930206 60.47011139 336.31007385 61.41596985 C336.00442223 63.96314695 335.50312615 66.48436923 335 69 C249.2 69 163.4 69 75 69 C76.32 81.87 77.64 94.74 79 108 C81 128.7 81 128.7 81 138 C162.84 138 244.68 138 329 138 C329 140.97 329 143.94 329 147 C328.67 147 328.34 147 328 147 C328 144.36 328 141.72 328 139 C276.19 139 224.38 139 171 139 C171 161.11 171 183.22 171 206 C120.51 206 70.02 206 18 206 C16.494375 188.736875 14.98875 171.47375 13.4375 153.6875 C9.71289022 110.99990627 9.71289022 110.99990627 5.8125 68.328125 C5.73030779 67.45027155 5.64811558 66.5724181 5.56343269 65.66796303 C4.81086055 57.64084148 4.05145158 49.61439329 3.28139305 41.58893013 C3.00818427 38.73772237 2.73707038 35.88631723 2.46617126 33.03488922 C2.28826603 31.17290787 2.10683368 29.3112645 1.9251709 27.449646 C1.05387191 18.29419194 0.5412099 9.20056833 0 0 Z " fill="#EBE9E8" transform="translate(213,264)"/>
<path d="M0 0 C22.44 0 44.88 0 68 0 C68.91202416 2.73607247 69.2456783 4.83589122 69.48071289 7.68334961 C69.56072037 8.63120834 69.64072784 9.57906708 69.72315979 10.5556488 C69.80549362 11.57755814 69.88782745 12.59946747 69.97265625 13.65234375 C70.06002548 14.70402237 70.14739471 15.75570099 70.2374115 16.83924866 C70.42150456 19.06415597 70.60379463 21.28921309 70.78442383 23.5144043 C71.0611404 26.92076338 71.34356649 30.32661187 71.62695312 33.73242188 C71.80502455 35.89320142 71.9827698 38.05400787 72.16015625 40.21484375 C72.24451431 41.23472885 72.32887238 42.25461395 72.41578674 43.30540466 C72.49264206 44.25641556 72.56949738 45.20742645 72.64868164 46.18725586 C72.75074669 47.43943153 72.75074669 47.43943153 72.85487366 48.71690369 C72.9877705 50.80760816 73 52.90507595 73 55 C74.25296875 55.27328125 75.5059375 55.5465625 76.796875 55.828125 C90.15345521 58.7997295 103.41826222 62.20166513 116.5625 66 C127.65587517 69.18851502 138.83126529 72.08641703 150 75 C149.67 98.1 149.34 121.2 149 145 C149.66 145.33 150.32 145.66 151 146 C146.70660932 146.15901447 143.28693583 145.69522165 139.1875 144.4375 C137.96933594 144.07398438 136.75117188 143.71046875 135.49609375 143.3359375 C134.7985498 143.12678711 134.10100586 142.91763672 133.38232422 142.70214844 C128.52008629 141.26908876 123.63268737 139.92387405 118.75 138.5625 C116.5572891 137.94922794 114.36458074 137.33594677 112.171875 136.72265625 C106.41209717 135.11403008 100.65046152 133.51218876 94.88769531 131.91430664 C87.334085 129.81844336 79.7864668 127.7012374 72.23828125 125.5859375 C65.46207394 123.68760902 58.68346421 121.7982674 51.90209961 119.91845703 C44.24357228 117.7937382 36.59129885 115.64668898 28.93945312 113.49804688 C27.93978516 113.21767578 26.94011719 112.93730469 25.91015625 112.6484375 C25.03496338 112.40270996 24.15977051 112.15698242 23.25805664 111.90380859 C18.50972303 110.58658634 13.75471761 109.2939601 9 108 C6.55892874 82.58848472 4.13697735 57.17511642 1.95007324 31.74026489 C1.77600289 29.71646442 1.60080415 27.69276067 1.42443848 25.66915894 C1.1790228 22.84614584 0.93833135 20.02277188 0.69921875 17.19921875 C0.62759018 16.38060364 0.55596161 15.56198853 0.48216248 14.71856689 C0.41803665 13.94736511 0.35391083 13.17616333 0.2878418 12.3815918 C0.23186325 11.72426559 0.1758847 11.06693939 0.11820984 10.38969421 C-0.052906 6.93046833 0 3.46345555 0 0 Z " fill="#EAEAE9" transform="translate(235,504)"/>
<path d="M0 0 C56.1 0 112.2 0 170 0 C170 10.12692917 170 10.12692917 169.55688477 14.9152832 C169.4600087 15.98281326 169.36313263 17.05034332 169.26332092 18.15022278 C169.15708908 19.27240707 169.05085724 20.39459137 168.94140625 21.55078125 C168.8327977 22.72714645 168.72418915 23.90351166 168.61228943 25.11552429 C168.38309038 27.58737471 168.15185967 30.0590375 167.91870117 32.53051758 C167.56204033 36.31738053 167.21317945 40.10490547 166.86523438 43.89257812 C166.6410871 46.29952224 166.41649334 48.70642484 166.19140625 51.11328125 C166.08719864 52.2455867 165.98299103 53.37789215 165.87562561 54.54450989 C165.77559738 55.59627914 165.67556915 56.6480484 165.57250977 57.73168945 C165.48590591 58.65496536 165.39930206 59.57824127 165.31007385 60.52949524 C165 63 165 63 164 67 C109.88 67 55.76 67 0 67 C0 44.89 0 22.78 0 0 Z " fill="#FEFEFE" transform="translate(384,265)"/>
<path d="M0 0 C12.21 0 24.42 0 37 0 C41.33802801 6.19718287 45.41059444 12.16006743 49.125 18.6875 C52.16567106 24.01596031 55.35948587 29.05745146 59 34 C59.45850342 33.21874756 59.91700684 32.43749512 60.3894043 31.63256836 C62.11075538 28.70312205 63.83504459 25.77544609 65.5612793 22.84887695 C66.30430506 21.5878432 67.04619234 20.32613786 67.78686523 19.0637207 C68.85874216 17.23726555 69.93484718 15.4133575 71.01171875 13.58984375 C71.65584717 12.49534912 72.29997559 11.40085449 72.96362305 10.27319336 C75.15619067 6.74894517 77.58749891 3.37750152 80 0 C92.21 0 104.42 0 117 0 C117 34.32 117 68.64 117 104 C105.45 104 93.9 104 82 104 C81.67 88.16 81.34 72.32 81 56 C77.7 61.28 74.4 66.56 71 72 C68.80798201 75.34746348 66.61163336 78.68340911 64.375 82 C63.84777344 82.78632812 63.32054687 83.57265625 62.77734375 84.3828125 C61.52045403 86.25672081 60.26140182 88.12912749 59 90 C54.3584524 85.80983226 51.31012827 81.0643008 48.0625 75.75 C47.05454977 74.1190715 46.04543736 72.48886066 45.03515625 70.859375 C44.37592163 69.78381348 44.37592163 69.78381348 43.70336914 68.68652344 C41.20499676 64.74613506 38.58805095 60.88207643 36 57 C35.67 72.51 35.34 88.02 35 104 C23.45 104 11.9 104 0 104 C0 69.68 0 35.36 0 0 Z " fill="#000000" transform="translate(389,0)"/>
<path d="M0 0 C11.88 0 23.76 0 36 0 C36 11.22 36 22.44 36 34 C45.9 34 55.8 34 66 34 C66 22.78 66 11.56 66 0 C77.88 0 89.76 0 102 0 C102 34.32 102 68.64 102 104 C90.12 104 78.24 104 66 104 C66 92.45 66 80.9 66 69 C56.1 69 46.2 69 36 69 C36 80.55 36 92.1 36 104 C24.12 104 12.24 104 0 104 C0 69.68 0 35.36 0 0 Z " fill="#000000" transform="translate(162,0)"/>
<path d="M0 0 C77.88 0 155.76 0 236 0 C235.34 7.26 234.68 14.52 234 22 C233.496182 27.60145671 232.99318102 33.20297864 232.4921875 38.8046875 C232.36053772 40.27540198 232.22887439 41.74611525 232.09719849 43.21682739 C231.75843197 47.00096464 231.41984352 50.7851178 231.08129883 54.5692749 C230.7326973 58.46546419 230.38391817 62.36163757 230.03515625 66.2578125 C229.356602 73.83852656 228.6782368 81.41925753 228 89 C225.93597059 89.64150162 223.87141462 90.28130918 221.80664062 90.92041016 C220.65699829 91.27688629 219.50735596 91.63336243 218.32287598 92.00064087 C214.08003214 93.27668149 209.80874903 94.34962681 205.5 95.375 C198.449914 97.09295199 191.46680202 98.97112404 184.5 101 C177.30204831 103.09188571 170.08407785 105.05447472 162.8125 106.875 C161.9565625 107.09027344 161.100625 107.30554688 160.21875 107.52734375 C154.25985617 109 154.25985617 109 152 109 C152 73.36 152 37.72 152 1 C101.84 1 51.68 1 0 1 C0 0.67 0 0.34 0 0 Z " fill="#F0662B" transform="translate(232,470)"/>
<path d="M0 0 C31.68 0 63.36 0 96 0 C96 22.77 96 45.54 96 69 C66.3 69 36.6 69 6 69 C5.01 59.1 4.02 49.2 3 39 C2.53013672 34.33230469 2.53013672 34.33230469 2.05078125 29.5703125 C1.80437632 27.08857254 1.55826302 24.60680361 1.3125 22.125 C1.18294922 20.84882813 1.05339844 19.57265625 0.91992188 18.2578125 C0.79810547 17.0203125 0.67628906 15.7828125 0.55078125 14.5078125 C0.44419189 13.44191895 0.33760254 12.37602539 0.2277832 11.27783203 C-0.03288126 7.52683414 0 3.76004404 0 0 Z " fill="#E44D26" transform="translate(288,333)"/>
<path d="M0 0 C32.01 0 64.02 0 97 0 C97 11.55 97 23.1 97 35 C86.77 35 76.54 35 66 35 C66 57.77 66 80.54 66 104 C54.45 104 42.9 104 31 104 C31 81.23 31 58.46 31 35 C20.77 35 10.54 35 0 35 C0 23.45 0 11.9 0 0 Z " fill="#000000" transform="translate(278,0)"/>
<path d="M0 0 C11.55 0 23.1 0 35 0 C35 22.77 35 45.54 35 69 C51.17 69 67.34 69 84 69 C84 80.55 84 92.1 84 104 C56.28 104 28.56 104 0 104 C0 69.68 0 35.36 0 0 Z " fill="#000000" transform="translate(523,0)"/>
</svg>
