<?xml version="1.0" encoding="UTF-8"?>
<svg version="1.1" xmlns="http://www.w3.org/2000/svg" width="96" height="96">
<path d="M0 0 C8.22822467 6.18636094 14.27470598 12.96380856 17 23 C18.22208983 34.06206639 17.86698468 44.52662351 11.01171875 53.64453125 C4.91481936 60.83655592 -2.25971873 67.1448868 -12.0065918 68.22167969 C-24.64611995 68.88864318 -33.70299728 67.95189476 -43.5625 59.4375 C-47.83984962 55.48045113 -47.83984962 55.48045113 -49 52 C-50.39025391 52.01740234 -50.39025391 52.01740234 -51.80859375 52.03515625 C-53.00613281 52.04417969 -54.20367187 52.05320313 -55.4375 52.0625 C-56.63246094 52.07410156 -57.82742187 52.08570313 -59.05859375 52.09765625 C-62 52 -62 52 -63 51 C-63.10103255 48.20006403 -63.13970088 45.42531356 -63.1328125 42.625 C-63.13376923 41.78533691 -63.13472595 40.94567383 -63.13571167 40.08056641 C-63.13639348 38.30175705 -63.13453917 36.52294523 -63.13037109 34.74414062 C-63.12502283 32.01166224 -63.13031605 29.27934824 -63.13671875 26.546875 C-63.13605797 24.8229163 -63.13477681 23.09895771 -63.1328125 21.375 C-63.13483673 20.55209473 -63.13686096 19.72918945 -63.13894653 18.88134766 C-63.11495054 13.11495054 -63.11495054 13.11495054 -62 12 C-59.81360547 11.92741054 -57.62499611 11.91626217 -55.4375 11.9375 C-53.64119141 11.95103516 -53.64119141 11.95103516 -51.80859375 11.96484375 C-50.88175781 11.97644531 -49.95492187 11.98804688 -49 12 C-48.7525 11.4225 -48.505 10.845 -48.25 10.25 C-44.730796 3.91543281 -37.82610248 -1.00540383 -31.06640625 -3.375 C-21.01775982 -5.42313176 -8.83822561 -5.75333011 0 0 Z " fill="#DB4B2C" transform="translate(71,16)"/>
<path d="M0 0 C0 11.88 0 23.76 0 36 C-1.32 36 -2.64 36 -4 36 C-3.97679687 37.27617188 -3.95359375 38.55234375 -3.9296875 39.8671875 C-3.91093171 41.5364525 -3.89273131 43.2057238 -3.875 44.875 C-3.85824219 45.71675781 -3.84148438 46.55851562 -3.82421875 47.42578125 C-3.81455078 48.63427734 -3.81455078 48.63427734 -3.8046875 49.8671875 C-3.78897705 50.98262939 -3.78897705 50.98262939 -3.77294922 52.12060547 C-4 54 -4 54 -6 56 C-8.78510224 56.18753311 -11.46899646 56.25561232 -14.25390625 56.23046875 C-15.06995834 56.23001053 -15.88601044 56.22955231 -16.72679138 56.2290802 C-18.45255995 56.22605744 -20.17832578 56.21817042 -21.90405273 56.20581055 C-24.55527333 56.18754978 -27.20614496 56.18530086 -29.85742188 56.18554688 C-31.53125304 56.18063194 -33.20508182 56.17480373 -34.87890625 56.16796875 C-35.67680069 56.16685593 -36.47469513 56.1657431 -37.29676819 56.16459656 C-42.88395099 56.11604901 -42.88395099 56.11604901 -44 55 C-44.10103255 52.20006403 -44.13970088 49.42531356 -44.1328125 46.625 C-44.13376923 45.78533691 -44.13472595 44.94567383 -44.13571167 44.08056641 C-44.13639348 42.30175705 -44.13453917 40.52294523 -44.13037109 38.74414062 C-44.12502283 36.01166224 -44.13031605 33.27934824 -44.13671875 30.546875 C-44.13605797 28.8229163 -44.13477681 27.09895771 -44.1328125 25.375 C-44.13483673 24.55209473 -44.13686096 23.72918945 -44.13894653 22.88134766 C-44.11495054 17.11495054 -44.11495054 17.11495054 -43 16 C-40.81360547 15.92741054 -38.62499611 15.91626217 -36.4375 15.9375 C-34.64119141 15.95103516 -34.64119141 15.95103516 -32.80859375 15.96484375 C-31.88175781 15.97644531 -30.95492188 15.98804688 -30 16 C-29.7525 15.4225 -29.505 14.845 -29.25 14.25 C-25.53397748 7.56115946 -18.66169535 3.37762729 -11.75 0.59375 C-9 0 -9 0 0 0 Z " fill="#9B341F" transform="translate(52,12)"/>
<path d="M0 0 C12.05375382 0 18.1319117 2.34108592 26.80078125 10.62890625 C34.13895134 18.54057453 36 25.10733609 36 36 C24.12 36 12.24 36 0 36 C0 24.12 0 12.24 0 0 Z " fill="#F7A177" transform="translate(52,12)"/>
<path d="M0 0 C0 11.88 0 23.76 0 36 C-1.32 36 -2.64 36 -4 36 C-4.06058594 34.71222656 -4.12117188 33.42445312 -4.18359375 32.09765625 C-4.26798247 30.41925841 -4.3526313 28.74087364 -4.4375 27.0625 C-4.47681641 26.21236328 -4.51613281 25.36222656 -4.55664062 24.48632812 C-4.59853516 23.67744141 -4.64042969 22.86855469 -4.68359375 22.03515625 C-4.72025146 21.2862915 -4.75690918 20.53742676 -4.79467773 19.76586914 C-4.81771063 17.97538674 -4.81771063 17.97538674 -6 17 C-7.77869726 16.84235595 -9.56318476 16.74899323 -11.34765625 16.68359375 C-12.96704102 16.62075195 -12.96704102 16.62075195 -14.61914062 16.55664062 C-15.75544922 16.51732422 -16.89175781 16.47800781 -18.0625 16.4375 C-19.20267578 16.39431641 -20.34285156 16.35113281 -21.51757812 16.30664062 C-24.34492195 16.20017161 -27.17235738 16.09815793 -30 16 C-26.36948213 8.32313402 -19.4628857 3.70032896 -11.75 0.59375 C-9 0 -9 0 0 0 Z " fill="#BF6245" transform="translate(52,12)"/>
<path d="M0 0 C11.48148148 -0.37037037 11.48148148 -0.37037037 13.859375 1.328125 C15.6653647 3.97526059 15.44479916 5.88640589 15 9 C13.4375 11.375 13.4375 11.375 11 13 C7.25 13.25 7.25 13.25 4 13 C4 15.31 4 17.62 4 20 C2.68 20 1.36 20 0 20 C0 13.4 0 6.8 0 0 Z " fill="#FCFAFA" transform="translate(20,38)"/>
<path d="M0 0 C2.31 0.33 4.62 0.66 7 1 C6.125 5.875 6.125 5.875 5 7 C3.33382885 7.04063832 1.66611905 7.042721 0 7 C0 4.69 0 2.38 0 0 Z " fill="#A1422E" transform="translate(24,41)"/>
</svg>
